<svg xmlns="http://www.w3.org/2000/svg" xmlns:xlink="http://www.w3.org/1999/xlink" width="500" zoomAndPan="magnify" viewBox="0 0 375 374.999991" height="500" preserveAspectRatio="xMidYMid meet" version="1.0"><defs><g/><clipPath id="ffd6170e21"><path d="M 83 0.640625 L 160 0.640625 L 160 104 L 83 104 Z M 83 0.640625 " clip-rule="nonzero"/></clipPath><clipPath id="441c6d5d98"><rect x="0" width="77" y="0" height="104"/></clipPath><clipPath id="c8db276844"><path d="M 66 103.367188 L 173 103.367188 L 173 288.867188 L 66 288.867188 Z M 66 103.367188 " clip-rule="nonzero"/></clipPath><clipPath id="a7ae52603e"><path d="M 0.441406 301 L 258.921875 301 L 258.921875 358.71875 L 0.441406 358.71875 Z M 0.441406 301 " clip-rule="nonzero"/></clipPath><clipPath id="9173b1844b"><rect x="0" width="259" y="0" height="58"/></clipPath><clipPath id="f8493895e1"><rect x="0" width="259" y="0" height="359"/></clipPath></defs><g transform="matrix(1, 0, 0, 1, 67, 8)"><g clip-path="url(#f8493895e1)"><g clip-path="url(#ffd6170e21)"><g transform="matrix(1, 0, 0, 1, 83, 0)"><g clip-path="url(#441c6d5d98)"><g fill="#000000" fill-opacity="1"><g transform="translate(2.448827, 79.618056)"><g><path d="M 5.03125 2.5625 C 3.382812 2.5625 1.90625 1.945312 0.59375 0.71875 C -0.707031 -0.5 -1.359375 -2.273438 -1.359375 -4.609375 C -1.359375 -7.742188 -0.164062 -11.398438 2.21875 -15.578125 C 4.613281 -19.765625 7.601562 -23.335938 11.1875 -26.296875 C 14.769531 -29.253906 18.242188 -30.734375 21.609375 -30.734375 C 24.109375 -30.734375 25.359375 -29.851562 25.359375 -28.09375 C 25.359375 -27.863281 25.300781 -27.460938 25.1875 -26.890625 C 24.625 -27.742188 23.546875 -28.171875 21.953125 -28.171875 C 19.097656 -28.171875 16.332031 -26.816406 13.65625 -24.109375 C 10.988281 -21.410156 8.8125 -18.238281 7.125 -14.59375 C 5.445312 -10.957031 4.609375 -7.972656 4.609375 -5.640625 C 4.609375 -4.378906 4.878906 -3.378906 5.421875 -2.640625 C 5.960938 -1.898438 6.71875 -1.53125 7.6875 -1.53125 C 9.21875 -1.53125 11.09375 -2.507812 13.3125 -4.46875 C 15.539062 -6.4375 17.789062 -9.210938 20.0625 -12.796875 C 22.34375 -16.390625 24.363281 -20.460938 26.125 -25.015625 C 30.570312 -36.515625 34.285156 -45.46875 37.265625 -51.875 C 40.253906 -58.28125 42.773438 -61.484375 44.828125 -61.484375 C 45.285156 -61.484375 45.679688 -61.296875 46.015625 -60.921875 C 46.359375 -60.554688 46.53125 -60.085938 46.53125 -59.515625 C 46.53125 -58.660156 46.078125 -57.191406 45.171875 -55.109375 C 44.265625 -53.035156 42.785156 -49.835938 40.734375 -45.515625 C 36.515625 -36.742188 33.148438 -29.15625 30.640625 -22.75 C 28.140625 -16.351562 26.890625 -10.765625 26.890625 -5.984375 C 26.890625 -4.097656 26.988281 -2.828125 27.1875 -2.171875 C 27.394531 -1.523438 27.953125 -1.203125 28.859375 -1.203125 C 30.054688 -1.203125 31.460938 -1.726562 33.078125 -2.78125 C 34.703125 -3.832031 36.3125 -5.3125 37.90625 -7.21875 C 39.5 -9.125 40.867188 -11.328125 42.015625 -13.828125 L 43.03125 -13.0625 C 41.957031 -10.21875 40.476562 -7.628906 38.59375 -5.296875 C 36.71875 -2.960938 34.710938 -1.128906 32.578125 0.203125 C 30.441406 1.546875 28.40625 2.21875 26.46875 2.21875 C 24.53125 2.21875 23.101562 1.59375 22.1875 0.34375 C 21.28125 -0.90625 20.828125 -2.414062 20.828125 -4.1875 C 20.828125 -6.125 21.367188 -9.171875 22.453125 -13.328125 C 19.554688 -8.535156 16.554688 -4.6875 13.453125 -1.78125 C 10.347656 1.113281 7.539062 2.5625 5.03125 2.5625 Z M 5.03125 2.5625 "/></g></g></g><g fill="#000000" fill-opacity="1"><g transform="translate(42.833706, 79.618056)"><g><path d="M 14.765625 2.21875 C 12.835938 2.21875 11.316406 1.703125 10.203125 0.671875 C 9.085938 -0.347656 8.53125 -1.679688 8.53125 -3.328125 C 8.53125 -5.265625 9.359375 -8.054688 11.015625 -11.703125 C 11.753906 -13.578125 12.304688 -15.066406 12.671875 -16.171875 C 13.046875 -17.285156 13.234375 -18.328125 13.234375 -19.296875 C 13.234375 -20.722656 12.90625 -21.847656 12.25 -22.671875 C 11.59375 -23.492188 10.863281 -24.175781 10.0625 -24.71875 C 9.269531 -25.257812 8.734375 -25.613281 8.453125 -25.78125 C 7.203125 -22.59375 5.863281 -19.476562 4.4375 -16.4375 C 3.019531 -13.394531 1.828125 -11.046875 0.859375 -9.390625 L 0.078125 -10.84375 C 2.816406 -16.132812 5.125 -21.539062 7 -27.0625 C 6.425781 -27.632812 6.140625 -28.320312 6.140625 -29.125 C 6.140625 -30.144531 6.351562 -31.109375 6.78125 -32.015625 C 7.207031 -32.929688 7.71875 -33.644531 8.3125 -34.15625 C 8.914062 -34.664062 9.390625 -34.921875 9.734375 -34.921875 C 10.535156 -34.921875 10.9375 -34.238281 10.9375 -32.875 C 10.9375 -32.644531 10.789062 -32.128906 10.5 -31.328125 C 10.21875 -30.535156 10.046875 -30 9.984375 -29.71875 C 9.984375 -29.144531 10.222656 -28.613281 10.703125 -28.125 C 11.191406 -27.644531 11.976562 -27.035156 13.0625 -26.296875 C 14.832031 -25.046875 16.210938 -23.804688 17.203125 -22.578125 C 18.203125 -21.359375 18.703125 -19.78125 18.703125 -17.84375 C 18.703125 -16.59375 18.5 -15.351562 18.09375 -14.125 C 17.695312 -12.90625 17.101562 -11.300781 16.3125 -9.3125 C 15.0625 -6.570312 14.4375 -4.609375 14.4375 -3.421875 C 14.4375 -1.710938 15.289062 -0.859375 17 -0.859375 C 18.695312 -0.859375 20.53125 -1.539062 22.5 -2.90625 C 24.46875 -4.269531 26.273438 -5.960938 27.921875 -7.984375 C 29.578125 -10.003906 30.773438 -11.867188 31.515625 -13.578125 L 32.625 -12.71875 C 30.851562 -8.789062 28.285156 -5.316406 24.921875 -2.296875 C 21.566406 0.710938 18.179688 2.21875 14.765625 2.21875 Z M 14.765625 2.21875 "/></g></g></g></g></g></g><g clip-path="url(#c8db276844)"><path fill="#000000" d="M 165.195312 116.445312 C 164.882812 116.304688 164.566406 116.179688 164.246094 116.054688 C 163.785156 114.828125 163.191406 113.59375 162.464844 112.328125 C 160.820312 109.476562 158.613281 107.199219 156.101562 105.757812 C 153.300781 104.160156 149.882812 103.4375 146.199219 103.675781 C 141.480469 103.976562 138.566406 105.734375 135.753906 107.417969 C 131.777344 109.8125 128.015625 112.074219 119.238281 110.449219 C 113.03125 109.300781 109.683594 107.976562 106.992188 106.925781 C 103.105469 105.398438 100.539062 104.390625 92.984375 105.46875 C 83.335938 106.84375 80.800781 113.082031 80.695312 113.34375 C 80.570312 113.671875 80.730469 114.042969 81.058594 114.175781 C 81.386719 114.296875 81.757812 114.140625 81.890625 113.8125 C 81.988281 113.574219 84.289062 108.003906 93.164062 106.738281 C 100.386719 105.714844 102.691406 106.617188 106.523438 108.125 C 109.269531 109.203125 112.6875 110.546875 119.007812 111.71875 C 128.269531 113.433594 132.414062 110.941406 136.425781 108.53125 C 139.230469 106.84375 141.890625 105.246094 146.289062 104.964844 C 149.726562 104.742188 152.894531 105.40625 155.460938 106.878906 C 157.78125 108.214844 159.820312 110.324219 161.359375 112.984375 C 161.875 113.867188 162.308594 114.730469 162.679688 115.597656 C 159.074219 114.730469 154.699219 115.039062 149.644531 116.523438 C 143.738281 118.253906 138.808594 118.625 128.226562 115.808594 C 118.089844 113.117188 110.066406 114.023438 99.589844 119.050781 C 93.296875 122.070312 89.214844 120.179688 85.9375 118.652344 C 84.265625 117.875 82.820312 117.203125 81.316406 117.203125 C 78.988281 117.203125 75.171875 118.46875 72.070312 122.007812 C 68.917969 125.585938 65.589844 132.660156 67.449219 146.046875 C 70.921875 171.039062 82.589844 178.683594 93.550781 182.863281 C 103.476562 186.652344 109.941406 183.773438 115.652344 181.226562 C 117.636719 180.34375 119.503906 179.515625 121.433594 178.976562 C 125.695312 177.785156 129.722656 179.089844 133.992188 180.460938 C 138.363281 181.871094 143.3125 183.460938 149.203125 182.554688 C 151.300781 182.226562 153.277344 181.28125 155.074219 179.921875 C 155.136719 180.175781 155.195312 180.433594 155.269531 180.671875 C 155.628906 181.917969 156.066406 183.320312 156.535156 184.859375 C 159.304688 193.867188 163.503906 207.484375 163.804688 221.089844 C 164.050781 232.136719 159.792969 254.878906 153.941406 267.65625 C 148.988281 278.457031 142.128906 286.605469 138.824219 287.445312 C 138.375 287.5625 138.027344 287.527344 137.78125 287.339844 C 136.671875 286.511719 137.566406 281.742188 138.523438 276.691406 C 139.65625 270.660156 141.074219 263.152344 140.898438 255.441406 C 140.78125 250.558594 139.878906 245.5 138.558594 240.546875 C 141.261719 235.398438 143.386719 230.132812 144.101562 224.207031 C 145.898438 209.496094 139.859375 199.472656 132.964844 197.1875 C 130.5 196.363281 128.316406 196.816406 126.800781 198.457031 C 124.152344 201.328125 124.160156 207.171875 126.820312 213.355469 C 127.261719 214.378906 127.738281 215.472656 128.242188 216.640625 C 131.050781 223.050781 134.777344 231.546875 137.1875 240.394531 C 135.761719 243.089844 134.175781 245.753906 132.566406 248.476562 C 129.75 253.21875 126.84375 258.117188 124.675781 263.398438 C 123.214844 266.957031 120.167969 274.367188 119.175781 274.554688 C 118.921875 274.464844 118.425781 273.476562 118.070312 272.75 L 118 272.601562 C 117.097656 270.800781 117.183594 265.40625 117.292969 259.152344 C 117.378906 253.722656 117.484375 247.558594 117 241.859375 C 116.289062 233.648438 113.5625 226.152344 110.84375 219.792969 L 111.21875 219.078125 C 111.527344 218.484375 111.835938 217.886719 112.15625 217.292969 C 116.988281 208.074219 122.460938 197.628906 114.890625 193.308594 C 113.492188 192.515625 112.050781 192.347656 110.730469 192.824219 C 108.984375 193.460938 107.480469 195.191406 106.585938 197.59375 C 103.691406 205.371094 106.152344 212.214844 109.164062 219.128906 C 109.25 219.332031 109.339844 219.546875 109.429688 219.75 C 104.117188 229.941406 95.410156 246.804688 96.449219 264.027344 C 97.199219 276.53125 97.652344 284.082031 95.808594 285.46875 C 95.527344 285.679688 95.011719 285.902344 93.738281 285.449219 C 88.769531 283.683594 81.898438 272.910156 77.738281 252.820312 C 73.105469 230.488281 74.992188 218.734375 77.730469 209.347656 L 77.914062 208.710938 C 81.023438 198.023438 83.085938 190.96875 79.84375 183.082031 C 79.710938 182.757812 79.339844 182.597656 79.003906 182.730469 C 78.675781 182.863281 78.515625 183.242188 78.648438 183.570312 C 81.714844 191.039062 79.710938 197.925781 76.675781 208.355469 L 76.488281 208.992188 C 73.710938 218.53125 71.789062 230.476562 76.480469 253.085938 C 80.75 273.660156 88.007812 284.769531 93.3125 286.660156 C 94.703125 287.15625 95.773438 287.101562 96.589844 286.492188 C 98.988281 284.691406 98.597656 278.191406 97.742188 263.949219 C 96.757812 247.582031 104.816406 231.421875 110.082031 221.277344 C 112.617188 227.324219 115.070312 234.355469 115.722656 241.976562 C 116.210938 247.601562 116.105469 253.730469 116.015625 259.132812 C 115.902344 265.820312 115.8125 271.089844 116.855469 273.175781 L 116.929688 273.324219 C 117.664062 274.800781 118.183594 275.859375 119.210938 275.832031 C 120.539062 275.78125 121.691406 274.050781 125.871094 263.886719 C 128.003906 258.691406 130.890625 253.828125 133.679688 249.128906 C 135.0625 246.804688 136.417969 244.519531 137.675781 242.222656 C 138.78125 246.65625 139.523438 251.140625 139.621094 255.476562 C 139.800781 263.054688 138.398438 270.480469 137.277344 276.460938 C 136.027344 283.074219 135.273438 287.066406 137.027344 288.375 C 137.3125 288.585938 137.753906 288.796875 138.375 288.796875 C 138.613281 288.796875 138.871094 288.769531 139.160156 288.691406 C 143.332031 287.632812 150.34375 278.625 155.136719 268.195312 C 161.15625 255.0625 165.371094 232.484375 165.113281 221.074219 C 164.804688 207.296875 160.582031 193.574219 157.78125 184.496094 C 157.3125 182.96875 156.878906 181.574219 156.515625 180.328125 C 156.390625 179.914062 156.292969 179.472656 156.214844 179.011719 C 160.09375 175.578125 163.023438 170.269531 164.484375 165.410156 C 165.917969 160.652344 165.804688 156.933594 164.183594 155.46875 C 163.386719 154.746094 162.421875 154.671875 161.457031 155.273438 C 157.753906 157.578125 153.84375 170.542969 154.84375 178.507812 C 153.070312 179.957031 151.105469 180.964844 149.015625 181.289062 C 143.429688 182.164062 138.84375 180.679688 134.398438 179.25 C 129.945312 177.8125 125.730469 176.460938 121.097656 177.75 C 119.070312 178.3125 117.160156 179.171875 115.140625 180.070312 C 109.394531 182.632812 103.453125 185.28125 94.023438 181.6875 C 83.394531 177.625 72.097656 170.207031 68.714844 145.871094 C 66.925781 132.957031 70.0625 126.21875 73.011719 122.847656 C 76.019531 119.402344 79.632812 118.484375 81.289062 118.484375 C 82.511719 118.484375 83.839844 119.101562 85.371094 119.808594 C 88.707031 121.363281 93.285156 123.484375 100.132812 120.199219 C 110.429688 115.253906 117.957031 114.394531 127.882812 117.035156 C 138.753906 119.933594 143.863281 119.542969 150 117.742188 C 155.269531 116.199219 159.710938 115.976562 163.246094 117.070312 C 165.289062 123.050781 164.246094 128.949219 161.695312 136.863281 C 161.484375 137.53125 161.226562 138.222656 160.953125 138.953125 C 159.898438 141.796875 158.710938 145.023438 159.578125 148.140625 C 160.269531 150.613281 161.847656 151.183594 162.722656 151.308594 C 164.964844 151.617188 167.511719 149.824219 168.683594 147.917969 C 169.46875 146.628906 170.125 145.101562 170.683594 143.265625 C 173.703125 133.390625 174.074219 120.4375 165.195312 116.445312 Z M 107.753906 198.042969 C 108.507812 196.027344 109.765625 194.527344 111.136719 194.03125 C 111.492188 193.902344 111.855469 193.839844 112.226562 193.839844 C 112.871094 193.839844 113.546875 194.03125 114.226562 194.421875 C 120.726562 198.128906 115.777344 207.570312 110.996094 216.691406 C 110.722656 217.222656 110.4375 217.753906 110.171875 218.273438 C 107.222656 211.5 105.070312 205.265625 107.753906 198.042969 Z M 129.414062 216.117188 C 128.90625 214.960938 128.421875 213.867188 127.988281 212.84375 C 125.199219 206.34375 125.84375 201.363281 127.738281 199.324219 C 128.507812 198.492188 129.492188 198.070312 130.652344 198.070312 C 131.246094 198.070312 131.882812 198.183594 132.554688 198.40625 C 138.957031 200.53125 144.546875 210.027344 142.828125 224.058594 C 142.179688 229.3125 140.382812 234.074219 138.054688 238.71875 C 135.609375 230.265625 132.09375 222.246094 129.414062 216.117188 Z M 162.121094 156.351562 C 162.359375 156.203125 162.554688 156.148438 162.722656 156.148438 C 162.960938 156.148438 163.140625 156.261719 163.296875 156.414062 C 164.484375 157.492188 164.457031 160.953125 163.238281 165.042969 C 161.917969 169.429688 159.359375 174.199219 156.011719 177.457031 C 155.425781 169.75 159.242188 158.144531 162.121094 156.351562 Z M 169.453125 142.902344 C 168.921875 144.632812 168.308594 146.0625 167.585938 147.253906 C 166.523438 149.003906 164.414062 150.25 162.898438 150.046875 C 161.898438 149.90625 161.199219 149.15625 160.820312 147.804688 C 160.058594 145.082031 161.121094 142.195312 162.15625 139.40625 C 162.429688 138.664062 162.695312 137.957031 162.917969 137.257812 C 165.414062 129.503906 166.511719 123.597656 164.785156 117.671875 C 175.324219 122.554688 170.089844 140.828125 169.453125 142.902344 Z M 169.453125 142.902344 " fill-opacity="1" fill-rule="nonzero"/></g><g clip-path="url(#a7ae52603e)"><g transform="matrix(1, 0, 0, 1, 0, 301)"><g clip-path="url(#9173b1844b)"><g fill="#000000" fill-opacity="1"><g transform="translate(82.334112, 21.759478)"><g><path d="M 4.09375 -5.5 L 3.90625 -5 C 3.59375 -4.195312 3.34375 -3.535156 3.15625 -3.015625 C 2.976562 -2.492188 2.890625 -2.09375 2.890625 -1.8125 C 2.890625 -1.5625 2.976562 -1.359375 3.15625 -1.203125 C 3.34375 -1.046875 3.554688 -0.925781 3.796875 -0.84375 C 4.035156 -0.769531 4.328125 -0.695312 4.671875 -0.625 L 4.875 -0.59375 L 4.875 0 L -0.015625 0 L -0.015625 -0.53125 C 0.0859375 -0.613281 0.1875 -0.679688 0.28125 -0.734375 C 0.382812 -0.785156 0.507812 -0.84375 0.65625 -0.90625 C 0.90625 -1 1.101562 -1.097656 1.25 -1.203125 C 1.394531 -1.304688 1.523438 -1.46875 1.640625 -1.6875 C 1.710938 -1.820312 1.785156 -1.976562 1.859375 -2.15625 C 1.929688 -2.332031 1.976562 -2.445312 2 -2.5 L 2.125 -2.828125 L 5.984375 -12.734375 C 6.015625 -12.804688 6.035156 -12.9375 6.046875 -13.125 C 6.054688 -13.257812 6.066406 -13.367188 6.078125 -13.453125 C 6.097656 -13.546875 6.132812 -13.628906 6.1875 -13.703125 C 6.519531 -13.703125 6.804688 -13.664062 7.046875 -13.59375 C 7.296875 -13.519531 7.546875 -13.394531 7.796875 -13.21875 L 12.546875 -1.828125 C 12.640625 -1.609375 12.742188 -1.4375 12.859375 -1.3125 C 12.972656 -1.1875 13.09375 -1.085938 13.21875 -1.015625 C 13.351562 -0.953125 13.53125 -0.875 13.75 -0.78125 C 13.9375 -0.71875 14.132812 -0.632812 14.34375 -0.53125 L 14.3125 0 L 8.296875 0 L 8.28125 -0.53125 C 8.601562 -0.632812 8.878906 -0.734375 9.109375 -0.828125 C 9.335938 -0.921875 9.546875 -1.050781 9.734375 -1.21875 C 9.921875 -1.394531 10.015625 -1.609375 10.015625 -1.859375 C 10.015625 -2.140625 9.671875 -3.164062 8.984375 -4.9375 C 8.941406 -5.039062 8.898438 -5.140625 8.859375 -5.234375 C 8.816406 -5.328125 8.785156 -5.414062 8.765625 -5.5 Z M 6.34375 -11.5 L 4.453125 -6.421875 L 8.375 -6.421875 Z M 6.34375 -11.5 "/></g></g></g><g fill="#000000" fill-opacity="1"><g transform="translate(113.529529, 21.759478)"><g><path d="M 13.703125 -12.859375 C 13.304688 -12.703125 12.988281 -12.5625 12.75 -12.4375 C 12.507812 -12.3125 12.269531 -12.148438 12.03125 -11.953125 C 11.800781 -11.765625 11.59375 -11.523438 11.40625 -11.234375 L 8.015625 -6.03125 L 8.015625 -2.546875 C 8.015625 -2.066406 8.054688 -1.710938 8.140625 -1.484375 C 8.234375 -1.253906 8.359375 -1.101562 8.515625 -1.03125 C 8.671875 -0.957031 8.898438 -0.894531 9.203125 -0.84375 C 9.609375 -0.769531 9.960938 -0.664062 10.265625 -0.53125 L 10.234375 0 L 3.5625 0 L 3.53125 -0.53125 C 3.71875 -0.632812 3.890625 -0.707031 4.046875 -0.75 C 4.210938 -0.789062 4.414062 -0.832031 4.65625 -0.875 C 4.945312 -0.914062 5.164062 -0.96875 5.3125 -1.03125 C 5.457031 -1.101562 5.570312 -1.257812 5.65625 -1.5 C 5.75 -1.738281 5.796875 -2.113281 5.796875 -2.625 L 5.796875 -5.8125 L 2.015625 -11.734375 C 1.859375 -11.984375 1.5625 -12.226562 1.125 -12.46875 C 0.6875 -12.707031 0.304688 -12.863281 -0.015625 -12.9375 L -0.015625 -13.46875 L 6.390625 -13.46875 L 6.421875 -12.9375 C 6.015625 -12.863281 5.632812 -12.734375 5.28125 -12.546875 C 4.925781 -12.367188 4.75 -12.125 4.75 -11.8125 C 4.75 -11.59375 4.972656 -11.113281 5.421875 -10.375 C 5.878906 -9.644531 6.472656 -8.734375 7.203125 -7.640625 L 7.703125 -6.90625 C 7.742188 -6.976562 7.835938 -7.117188 7.984375 -7.328125 C 9.585938 -9.703125 10.390625 -11.191406 10.390625 -11.796875 C 10.390625 -12.066406 10.253906 -12.273438 9.984375 -12.421875 C 9.710938 -12.578125 9.363281 -12.707031 8.9375 -12.8125 C 8.925781 -12.8125 8.84375 -12.835938 8.6875 -12.890625 L 8.65625 -13.171875 C 8.65625 -13.222656 8.664062 -13.320312 8.6875 -13.46875 L 13.875 -13.46875 L 13.875 -12.9375 Z M 13.703125 -12.859375 "/></g></g></g><g fill="#000000" fill-opacity="1"><g transform="translate(144.404253, 21.759478)"><g><path d="M 4.09375 -5.5 L 3.90625 -5 C 3.59375 -4.195312 3.34375 -3.535156 3.15625 -3.015625 C 2.976562 -2.492188 2.890625 -2.09375 2.890625 -1.8125 C 2.890625 -1.5625 2.976562 -1.359375 3.15625 -1.203125 C 3.34375 -1.046875 3.554688 -0.925781 3.796875 -0.84375 C 4.035156 -0.769531 4.328125 -0.695312 4.671875 -0.625 L 4.875 -0.59375 L 4.875 0 L -0.015625 0 L -0.015625 -0.53125 C 0.0859375 -0.613281 0.1875 -0.679688 0.28125 -0.734375 C 0.382812 -0.785156 0.507812 -0.84375 0.65625 -0.90625 C 0.90625 -1 1.101562 -1.097656 1.25 -1.203125 C 1.394531 -1.304688 1.523438 -1.46875 1.640625 -1.6875 C 1.710938 -1.820312 1.785156 -1.976562 1.859375 -2.15625 C 1.929688 -2.332031 1.976562 -2.445312 2 -2.5 L 2.125 -2.828125 L 5.984375 -12.734375 C 6.015625 -12.804688 6.035156 -12.9375 6.046875 -13.125 C 6.054688 -13.257812 6.066406 -13.367188 6.078125 -13.453125 C 6.097656 -13.546875 6.132812 -13.628906 6.1875 -13.703125 C 6.519531 -13.703125 6.804688 -13.664062 7.046875 -13.59375 C 7.296875 -13.519531 7.546875 -13.394531 7.796875 -13.21875 L 12.546875 -1.828125 C 12.640625 -1.609375 12.742188 -1.4375 12.859375 -1.3125 C 12.972656 -1.1875 13.09375 -1.085938 13.21875 -1.015625 C 13.351562 -0.953125 13.53125 -0.875 13.75 -0.78125 C 13.9375 -0.71875 14.132812 -0.632812 14.34375 -0.53125 L 14.3125 0 L 8.296875 0 L 8.28125 -0.53125 C 8.601562 -0.632812 8.878906 -0.734375 9.109375 -0.828125 C 9.335938 -0.921875 9.546875 -1.050781 9.734375 -1.21875 C 9.921875 -1.394531 10.015625 -1.609375 10.015625 -1.859375 C 10.015625 -2.140625 9.671875 -3.164062 8.984375 -4.9375 C 8.941406 -5.039062 8.898438 -5.140625 8.859375 -5.234375 C 8.816406 -5.328125 8.785156 -5.414062 8.765625 -5.5 Z M 6.34375 -11.5 L 4.453125 -6.421875 L 8.375 -6.421875 Z M 6.34375 -11.5 "/></g></g></g><g fill="#000000" fill-opacity="1"><g transform="translate(0.479419, 50.755974)"><g><path d="M 12.859375 0.09375 C 12.742188 0.113281 12.632812 0.125 12.53125 0.125 C 12.394531 0.125 12.195312 0.101562 11.9375 0.0625 C 11.675781 0.0195312 11.476562 0 11.34375 0 L 0.71875 0 L 0.703125 -0.5 C 0.921875 -0.625 1.117188 -0.710938 1.296875 -0.765625 C 1.484375 -0.816406 1.6875 -0.859375 1.90625 -0.890625 C 2.175781 -0.941406 2.375 -1.003906 2.5 -1.078125 C 2.632812 -1.148438 2.734375 -1.3125 2.796875 -1.5625 C 2.867188 -1.8125 2.90625 -2.210938 2.90625 -2.765625 L 2.90625 -10.59375 C 2.90625 -11.132812 2.863281 -11.53125 2.78125 -11.78125 C 2.695312 -12.039062 2.570312 -12.21875 2.40625 -12.3125 C 2.238281 -12.414062 1.960938 -12.523438 1.578125 -12.640625 C 1.515625 -12.660156 1.394531 -12.695312 1.21875 -12.75 C 1.039062 -12.8125 0.867188 -12.875 0.703125 -12.9375 L 0.71875 -13.46875 L 11.28125 -13.46875 C 11.375 -13.46875 11.476562 -13.472656 11.59375 -13.484375 C 11.707031 -13.503906 11.785156 -13.515625 11.828125 -13.515625 C 12.035156 -13.554688 12.222656 -13.578125 12.390625 -13.578125 C 12.535156 -13.578125 12.664062 -13.5625 12.78125 -13.53125 L 12.78125 -10.3125 L 12.234375 -10.296875 C 12.117188 -10.410156 12.019531 -10.539062 11.9375 -10.6875 C 11.863281 -10.832031 11.78125 -11.019531 11.6875 -11.25 C 11.550781 -11.59375 11.414062 -11.863281 11.28125 -12.0625 C 11.144531 -12.257812 10.945312 -12.398438 10.6875 -12.484375 C 10.300781 -12.609375 9.820312 -12.6875 9.25 -12.71875 C 8.675781 -12.757812 8.015625 -12.78125 7.265625 -12.78125 C 6.378906 -12.78125 5.679688 -12.75 5.171875 -12.6875 C 5.140625 -12.375 5.125 -12.019531 5.125 -11.625 L 5.125 -7.421875 L 8.109375 -7.421875 C 8.648438 -7.421875 9.054688 -7.460938 9.328125 -7.546875 C 9.597656 -7.628906 9.804688 -7.757812 9.953125 -7.9375 C 10.109375 -8.125 10.316406 -8.457031 10.578125 -8.9375 L 10.734375 -9.21875 L 11.3125 -9.21875 L 11.3125 -4.78125 L 10.734375 -4.75 C 10.503906 -5.34375 10.21875 -5.800781 9.875 -6.125 C 9.539062 -6.457031 9.085938 -6.625 8.515625 -6.625 L 5.125 -6.625 L 5.125 -3.140625 C 5.125 -2.421875 5.207031 -1.890625 5.375 -1.546875 C 5.550781 -1.203125 5.796875 -0.976562 6.109375 -0.875 C 6.429688 -0.769531 6.890625 -0.71875 7.484375 -0.71875 L 8.5 -0.71875 C 9.375 -0.71875 10.125 -0.816406 10.75 -1.015625 C 11.382812 -1.210938 11.851562 -1.613281 12.15625 -2.21875 L 12.296875 -2.546875 C 12.421875 -2.816406 12.519531 -3.019531 12.59375 -3.15625 C 12.675781 -3.289062 12.773438 -3.414062 12.890625 -3.53125 L 13.546875 -3.53125 Z M 12.859375 0.09375 "/></g></g></g><g fill="#000000" fill-opacity="1"><g transform="translate(31.778285, 50.755974)"><g><path d="M 3.09375 -10.703125 C 3.09375 -11.253906 3.046875 -11.660156 2.953125 -11.921875 C 2.867188 -12.179688 2.738281 -12.351562 2.5625 -12.4375 C 2.394531 -12.53125 2.117188 -12.613281 1.734375 -12.6875 C 1.265625 -12.789062 0.925781 -12.875 0.71875 -12.9375 L 0.734375 -13.46875 L 7.734375 -13.46875 L 7.734375 -12.9375 C 7.523438 -12.851562 7.34375 -12.789062 7.1875 -12.75 C 7.03125 -12.707031 6.820312 -12.664062 6.5625 -12.625 C 6.226562 -12.5625 5.984375 -12.488281 5.828125 -12.40625 C 5.671875 -12.332031 5.546875 -12.171875 5.453125 -11.921875 C 5.367188 -11.679688 5.328125 -11.296875 5.328125 -10.765625 L 5.328125 -3.234375 C 5.328125 -2.390625 5.40625 -1.804688 5.5625 -1.484375 C 5.726562 -1.171875 6.035156 -0.972656 6.484375 -0.890625 C 6.929688 -0.804688 7.753906 -0.765625 8.953125 -0.765625 C 9.710938 -0.765625 10.351562 -0.863281 10.875 -1.0625 C 11.394531 -1.257812 11.804688 -1.65625 12.109375 -2.25 L 12.265625 -2.5625 C 12.378906 -2.78125 12.476562 -2.96875 12.5625 -3.125 C 12.65625 -3.28125 12.757812 -3.425781 12.875 -3.5625 L 13.5 -3.53125 L 12.84375 0.109375 C 11.925781 0.0351562 11.171875 0 10.578125 0 L 0.71875 0 L 0.703125 -0.5625 C 0.804688 -0.59375 1.023438 -0.65625 1.359375 -0.75 C 1.753906 -0.851562 2.066406 -0.953125 2.296875 -1.046875 C 2.523438 -1.148438 2.710938 -1.316406 2.859375 -1.546875 C 3.015625 -1.773438 3.09375 -2.085938 3.09375 -2.484375 Z M 3.09375 -10.703125 "/></g></g></g><g fill="#000000" fill-opacity="1"><g transform="translate(62.146108, 50.755974)"><g><path d="M 4.09375 -5.5 L 3.90625 -5 C 3.59375 -4.195312 3.34375 -3.535156 3.15625 -3.015625 C 2.976562 -2.492188 2.890625 -2.09375 2.890625 -1.8125 C 2.890625 -1.5625 2.976562 -1.359375 3.15625 -1.203125 C 3.34375 -1.046875 3.554688 -0.925781 3.796875 -0.84375 C 4.035156 -0.769531 4.328125 -0.695312 4.671875 -0.625 L 4.875 -0.59375 L 4.875 0 L -0.015625 0 L -0.015625 -0.53125 C 0.0859375 -0.613281 0.1875 -0.679688 0.28125 -0.734375 C 0.382812 -0.785156 0.507812 -0.84375 0.65625 -0.90625 C 0.90625 -1 1.101562 -1.097656 1.25 -1.203125 C 1.394531 -1.304688 1.523438 -1.46875 1.640625 -1.6875 C 1.710938 -1.820312 1.785156 -1.976562 1.859375 -2.15625 C 1.929688 -2.332031 1.976562 -2.445312 2 -2.5 L 2.125 -2.828125 L 5.984375 -12.734375 C 6.015625 -12.804688 6.035156 -12.9375 6.046875 -13.125 C 6.054688 -13.257812 6.066406 -13.367188 6.078125 -13.453125 C 6.097656 -13.546875 6.132812 -13.628906 6.1875 -13.703125 C 6.519531 -13.703125 6.804688 -13.664062 7.046875 -13.59375 C 7.296875 -13.519531 7.546875 -13.394531 7.796875 -13.21875 L 12.546875 -1.828125 C 12.640625 -1.609375 12.742188 -1.4375 12.859375 -1.3125 C 12.972656 -1.1875 13.09375 -1.085938 13.21875 -1.015625 C 13.351562 -0.953125 13.53125 -0.875 13.75 -0.78125 C 13.9375 -0.71875 14.132812 -0.632812 14.34375 -0.53125 L 14.3125 0 L 8.296875 0 L 8.28125 -0.53125 C 8.601562 -0.632812 8.878906 -0.734375 9.109375 -0.828125 C 9.335938 -0.921875 9.546875 -1.050781 9.734375 -1.21875 C 9.921875 -1.394531 10.015625 -1.609375 10.015625 -1.859375 C 10.015625 -2.140625 9.671875 -3.164062 8.984375 -4.9375 C 8.941406 -5.039062 8.898438 -5.140625 8.859375 -5.234375 C 8.816406 -5.328125 8.785156 -5.414062 8.765625 -5.5 Z M 6.34375 -11.5 L 4.453125 -6.421875 L 8.375 -6.421875 Z M 6.34375 -11.5 "/></g></g></g><g fill="#000000" fill-opacity="1"><g transform="translate(93.341524, 50.755974)"><g><path d="M 14.34375 -0.984375 C 13.613281 -0.597656 12.78125 -0.289062 11.84375 -0.0625 C 10.90625 0.15625 9.957031 0.265625 9 0.265625 C 7.4375 0.265625 6.0625 -0.015625 4.875 -0.578125 C 3.695312 -1.148438 2.78125 -1.953125 2.125 -2.984375 C 1.476562 -4.023438 1.15625 -5.226562 1.15625 -6.59375 C 1.15625 -8 1.523438 -9.242188 2.265625 -10.328125 C 3.015625 -11.410156 4.015625 -12.25 5.265625 -12.84375 C 6.523438 -13.4375 7.898438 -13.734375 9.390625 -13.734375 C 10.203125 -13.734375 10.945312 -13.671875 11.625 -13.546875 C 12.300781 -13.421875 13.066406 -13.207031 13.921875 -12.90625 L 14.234375 -9.78125 C 14.023438 -9.757812 13.828125 -9.75 13.640625 -9.75 C 13.535156 -9.832031 13.441406 -9.9375 13.359375 -10.0625 C 13.285156 -10.195312 13.179688 -10.394531 13.046875 -10.65625 C 12.972656 -10.789062 12.898438 -10.925781 12.828125 -11.0625 C 12.753906 -11.195312 12.6875 -11.300781 12.625 -11.375 C 11.75 -12.414062 10.578125 -12.9375 9.109375 -12.9375 C 8.066406 -12.9375 7.125 -12.675781 6.28125 -12.15625 C 5.445312 -11.632812 4.796875 -10.921875 4.328125 -10.015625 C 3.859375 -9.109375 3.625 -8.097656 3.625 -6.984375 C 3.625 -5.773438 3.859375 -4.6875 4.328125 -3.71875 C 4.796875 -2.757812 5.445312 -2.003906 6.28125 -1.453125 C 7.125 -0.910156 8.085938 -0.640625 9.171875 -0.640625 C 9.742188 -0.640625 10.25 -0.6875 10.6875 -0.78125 C 11.125 -0.882812 11.539062 -1.0625 11.9375 -1.3125 C 12.019531 -2.019531 12.0625 -2.894531 12.0625 -3.9375 C 12.0625 -4.59375 11.960938 -5.1875 11.765625 -5.71875 C 11.691406 -5.9375 11.550781 -6.085938 11.34375 -6.171875 C 11.132812 -6.253906 10.847656 -6.328125 10.484375 -6.390625 C 10.171875 -6.441406 9.953125 -6.488281 9.828125 -6.53125 C 9.828125 -6.632812 9.828125 -6.738281 9.828125 -6.84375 C 9.835938 -6.957031 9.84375 -7.035156 9.84375 -7.078125 L 16.0625 -7.078125 C 16.0625 -7.035156 16.0625 -6.957031 16.0625 -6.84375 C 16.070312 -6.738281 16.078125 -6.632812 16.078125 -6.53125 C 15.984375 -6.5 15.882812 -6.46875 15.78125 -6.4375 C 15.445312 -6.320312 15.1875 -6.210938 15 -6.109375 C 14.8125 -6.003906 14.65625 -5.84375 14.53125 -5.625 C 14.40625 -5.414062 14.34375 -5.140625 14.34375 -4.796875 Z M 14.34375 -0.984375 "/></g></g></g><g fill="#000000" fill-opacity="1"><g transform="translate(126.605928, 50.755974)"><g><path d="M 5.125 -2.640625 C 5.125 -2.128906 5.164062 -1.75 5.25 -1.5 C 5.34375 -1.257812 5.46875 -1.101562 5.625 -1.03125 C 5.78125 -0.957031 6.019531 -0.890625 6.34375 -0.828125 C 6.757812 -0.753906 7.117188 -0.65625 7.421875 -0.53125 L 7.390625 0 L 0.734375 0 C 0.722656 -0.0507812 0.710938 -0.125 0.703125 -0.21875 C 0.703125 -0.3125 0.703125 -0.414062 0.703125 -0.53125 C 0.898438 -0.613281 1.078125 -0.675781 1.234375 -0.71875 C 1.398438 -0.757812 1.585938 -0.804688 1.796875 -0.859375 C 2.109375 -0.921875 2.332031 -0.992188 2.46875 -1.078125 C 2.601562 -1.160156 2.707031 -1.320312 2.78125 -1.5625 C 2.851562 -1.8125 2.890625 -2.203125 2.890625 -2.734375 L 2.890625 -10.734375 C 2.890625 -11.242188 2.847656 -11.617188 2.765625 -11.859375 C 2.691406 -12.109375 2.578125 -12.273438 2.421875 -12.359375 C 2.265625 -12.441406 2.03125 -12.523438 1.71875 -12.609375 C 1.570312 -12.640625 1.410156 -12.679688 1.234375 -12.734375 C 1.054688 -12.796875 0.882812 -12.863281 0.71875 -12.9375 L 0.734375 -13.46875 L 7.390625 -13.46875 L 7.40625 -12.9375 C 7.09375 -12.789062 6.734375 -12.675781 6.328125 -12.59375 C 6.003906 -12.53125 5.765625 -12.453125 5.609375 -12.359375 C 5.453125 -12.273438 5.332031 -12.109375 5.25 -11.859375 C 5.164062 -11.617188 5.125 -11.242188 5.125 -10.734375 L 5.125 -7.359375 L 12.5 -7.359375 L 12.5 -10.828125 C 12.5 -11.296875 12.457031 -11.644531 12.375 -11.875 C 12.300781 -12.101562 12.191406 -12.257812 12.046875 -12.34375 C 11.898438 -12.4375 11.675781 -12.519531 11.375 -12.59375 C 11 -12.695312 10.675781 -12.8125 10.40625 -12.9375 L 10.421875 -13.46875 L 16.921875 -13.46875 L 16.9375 -12.9375 C 16.632812 -12.832031 16.34375 -12.742188 16.0625 -12.671875 C 15.675781 -12.566406 15.398438 -12.46875 15.234375 -12.375 C 15.066406 -12.28125 14.941406 -12.101562 14.859375 -11.84375 C 14.773438 -11.59375 14.734375 -11.195312 14.734375 -10.65625 L 14.734375 -2.765625 C 14.734375 -2.210938 14.769531 -1.804688 14.84375 -1.546875 C 14.914062 -1.296875 15.03125 -1.128906 15.1875 -1.046875 C 15.34375 -0.960938 15.601562 -0.882812 15.96875 -0.8125 C 16.363281 -0.71875 16.6875 -0.625 16.9375 -0.53125 L 16.9375 0 L 10.421875 0 L 10.40625 -0.53125 C 10.582031 -0.632812 10.738281 -0.707031 10.875 -0.75 C 11.019531 -0.789062 11.210938 -0.832031 11.453125 -0.875 C 11.722656 -0.925781 11.925781 -0.988281 12.0625 -1.0625 C 12.195312 -1.132812 12.300781 -1.285156 12.375 -1.515625 C 12.457031 -1.753906 12.5 -2.117188 12.5 -2.609375 L 12.5 -6.46875 L 5.125 -6.46875 Z M 5.125 -2.640625 "/></g></g></g><g fill="#000000" fill-opacity="1"><g transform="translate(161.20483, 50.755974)"><g><path d="M 8.3125 -13.734375 C 9.613281 -13.734375 10.804688 -13.441406 11.890625 -12.859375 C 12.972656 -12.273438 13.832031 -11.453125 14.46875 -10.390625 C 15.101562 -9.328125 15.421875 -8.097656 15.421875 -6.703125 C 15.421875 -5.335938 15.09375 -4.125 14.4375 -3.0625 C 13.78125 -2.007812 12.890625 -1.191406 11.765625 -0.609375 C 10.648438 -0.0234375 9.429688 0.265625 8.109375 0.265625 C 6.890625 0.265625 5.75 -0.0078125 4.6875 -0.5625 C 3.625 -1.125 2.769531 -1.925781 2.125 -2.96875 C 1.476562 -4.007812 1.15625 -5.21875 1.15625 -6.59375 C 1.15625 -8.101562 1.492188 -9.394531 2.171875 -10.46875 C 2.859375 -11.539062 3.742188 -12.351562 4.828125 -12.90625 C 5.921875 -13.457031 7.082031 -13.734375 8.3125 -13.734375 Z M 8.65625 -0.53125 C 9.488281 -0.53125 10.234375 -0.75 10.890625 -1.1875 C 11.554688 -1.632812 12.078125 -2.273438 12.453125 -3.109375 C 12.828125 -3.941406 13.015625 -4.921875 13.015625 -6.046875 C 13.015625 -7.328125 12.800781 -8.488281 12.375 -9.53125 C 11.945312 -10.582031 11.347656 -11.410156 10.578125 -12.015625 C 9.804688 -12.628906 8.929688 -12.9375 7.953125 -12.9375 C 7.148438 -12.9375 6.414062 -12.726562 5.75 -12.3125 C 5.082031 -11.894531 4.550781 -11.269531 4.15625 -10.4375 C 3.757812 -9.613281 3.5625 -8.617188 3.5625 -7.453125 C 3.5625 -6.148438 3.78125 -4.972656 4.21875 -3.921875 C 4.65625 -2.867188 5.257812 -2.039062 6.03125 -1.4375 C 6.8125 -0.832031 7.6875 -0.53125 8.65625 -0.53125 Z M 8.65625 -0.53125 "/></g></g></g><g fill="#000000" fill-opacity="1"><g transform="translate(194.748547, 50.755974)"><g><path d="M 7.1875 -5.609375 C 7.019531 -5.859375 6.878906 -6.039062 6.765625 -6.15625 C 6.648438 -6.269531 6.515625 -6.359375 6.359375 -6.421875 C 6.203125 -6.484375 5.984375 -6.519531 5.703125 -6.53125 L 5.0625 -6.578125 L 5.0625 -2.59375 C 5.0625 -2.101562 5.101562 -1.738281 5.1875 -1.5 C 5.269531 -1.257812 5.382812 -1.101562 5.53125 -1.03125 C 5.6875 -0.957031 5.910156 -0.894531 6.203125 -0.84375 C 6.421875 -0.8125 6.613281 -0.773438 6.78125 -0.734375 C 6.945312 -0.691406 7.117188 -0.625 7.296875 -0.53125 L 7.265625 0 L 0.71875 0 L 0.703125 -0.53125 C 0.890625 -0.632812 1.0625 -0.707031 1.21875 -0.75 C 1.382812 -0.800781 1.578125 -0.84375 1.796875 -0.875 C 2.066406 -0.914062 2.269531 -0.972656 2.40625 -1.046875 C 2.539062 -1.128906 2.644531 -1.304688 2.71875 -1.578125 C 2.789062 -1.847656 2.828125 -2.273438 2.828125 -2.859375 L 2.828125 -10.703125 C 2.828125 -11.191406 2.785156 -11.554688 2.703125 -11.796875 C 2.628906 -12.046875 2.515625 -12.21875 2.359375 -12.3125 C 2.203125 -12.40625 1.957031 -12.503906 1.625 -12.609375 C 1.269531 -12.703125 0.960938 -12.8125 0.703125 -12.9375 L 0.71875 -13.46875 L 5.5 -13.46875 C 6.78125 -13.46875 7.90625 -13.410156 8.875 -13.296875 C 9.84375 -13.179688 10.707031 -12.867188 11.46875 -12.359375 C 12.226562 -11.859375 12.609375 -11.082031 12.609375 -10.03125 C 12.609375 -9.382812 12.425781 -8.820312 12.0625 -8.34375 C 11.707031 -7.875 11.242188 -7.503906 10.671875 -7.234375 C 10.097656 -6.972656 9.488281 -6.789062 8.84375 -6.6875 C 8.925781 -6.582031 9.335938 -6.007812 10.078125 -4.96875 C 10.617188 -4.195312 11.082031 -3.550781 11.46875 -3.03125 C 11.851562 -2.519531 12.234375 -2.035156 12.609375 -1.578125 C 12.835938 -1.335938 13.039062 -1.148438 13.21875 -1.015625 C 13.394531 -0.878906 13.617188 -0.769531 13.890625 -0.6875 C 14.160156 -0.601562 14.5 -0.5625 14.90625 -0.5625 L 14.90625 0.015625 C 14.226562 0.179688 13.625 0.265625 13.09375 0.265625 C 12.351562 0.265625 11.675781 0.0390625 11.0625 -0.40625 C 10.457031 -0.851562 9.929688 -1.382812 9.484375 -2 C 9.046875 -2.613281 8.539062 -3.394531 7.96875 -4.34375 C 7.625 -4.925781 7.363281 -5.347656 7.1875 -5.609375 Z M 5.578125 -7.265625 C 6.460938 -7.265625 7.222656 -7.316406 7.859375 -7.421875 C 8.503906 -7.523438 9.054688 -7.769531 9.515625 -8.15625 C 9.972656 -8.539062 10.203125 -9.125 10.203125 -9.90625 C 10.203125 -10.757812 9.953125 -11.390625 9.453125 -11.796875 C 8.960938 -12.210938 8.382812 -12.460938 7.71875 -12.546875 C 7.0625 -12.640625 6.25 -12.6875 5.28125 -12.6875 L 5.0625 -12.6875 L 5.0625 -7.265625 Z M 5.578125 -7.265625 "/></g></g></g><g fill="#000000" fill-opacity="1"><g transform="translate(226.575005, 50.755974)"><g><path d="M 13.703125 -12.859375 C 13.304688 -12.703125 12.988281 -12.5625 12.75 -12.4375 C 12.507812 -12.3125 12.269531 -12.148438 12.03125 -11.953125 C 11.800781 -11.765625 11.59375 -11.523438 11.40625 -11.234375 L 8.015625 -6.03125 L 8.015625 -2.546875 C 8.015625 -2.066406 8.054688 -1.710938 8.140625 -1.484375 C 8.234375 -1.253906 8.359375 -1.101562 8.515625 -1.03125 C 8.671875 -0.957031 8.898438 -0.894531 9.203125 -0.84375 C 9.609375 -0.769531 9.960938 -0.664062 10.265625 -0.53125 L 10.234375 0 L 3.5625 0 L 3.53125 -0.53125 C 3.71875 -0.632812 3.890625 -0.707031 4.046875 -0.75 C 4.210938 -0.789062 4.414062 -0.832031 4.65625 -0.875 C 4.945312 -0.914062 5.164062 -0.96875 5.3125 -1.03125 C 5.457031 -1.101562 5.570312 -1.257812 5.65625 -1.5 C 5.75 -1.738281 5.796875 -2.113281 5.796875 -2.625 L 5.796875 -5.8125 L 2.015625 -11.734375 C 1.859375 -11.984375 1.5625 -12.226562 1.125 -12.46875 C 0.6875 -12.707031 0.304688 -12.863281 -0.015625 -12.9375 L -0.015625 -13.46875 L 6.390625 -13.46875 L 6.421875 -12.9375 C 6.015625 -12.863281 5.632812 -12.734375 5.28125 -12.546875 C 4.925781 -12.367188 4.75 -12.125 4.75 -11.8125 C 4.75 -11.59375 4.972656 -11.113281 5.421875 -10.375 C 5.878906 -9.644531 6.472656 -8.734375 7.203125 -7.640625 L 7.703125 -6.90625 C 7.742188 -6.976562 7.835938 -7.117188 7.984375 -7.328125 C 9.585938 -9.703125 10.390625 -11.191406 10.390625 -11.796875 C 10.390625 -12.066406 10.253906 -12.273438 9.984375 -12.421875 C 9.710938 -12.578125 9.363281 -12.707031 8.9375 -12.8125 C 8.925781 -12.8125 8.84375 -12.835938 8.6875 -12.890625 L 8.65625 -13.171875 C 8.65625 -13.222656 8.664062 -13.320312 8.6875 -13.46875 L 13.875 -13.46875 L 13.875 -12.9375 Z M 13.703125 -12.859375 "/></g></g></g></g></g></g></g></g></svg>